<svg xmlns="http://www.w3.org/2000/svg" xmlns:xlink="http://www.w3.org/1999/xlink" width="109" zoomAndPan="magnify" viewBox="0 0 81.75 81.749997" height="109" preserveAspectRatio="xMidYMid meet" version="1.0"><defs><clipPath id="7f772e048a"><path d="M 0 0 L 81.417969 0 L 81.417969 81.417969 L 0 81.417969 Z M 0 0 " clip-rule="nonzero"/></clipPath><clipPath id="3be73ab8b4"><path d="M 40.710938 0 C 18.226562 0 0 18.226562 0 40.710938 C 0 63.191406 18.226562 81.417969 40.710938 81.417969 C 63.191406 81.417969 81.417969 63.191406 81.417969 40.710938 C 81.417969 18.226562 63.191406 0 40.710938 0 Z M 40.710938 0 " clip-rule="nonzero"/></clipPath><clipPath id="b3f47f59a3"><path d="M 14.832031 19.585938 L 66.558594 19.585938 L 66.558594 61.824219 L 14.832031 61.824219 Z M 14.832031 19.585938 " clip-rule="nonzero"/></clipPath></defs><g clip-path="url(#7f772e048a)"><g clip-path="url(#3be73ab8b4)"><path fill="#000000" d="M 0 0 L 81.417969 0 L 81.417969 81.417969 L 0 81.417969 Z M 0 0 " fill-opacity="1" fill-rule="nonzero"/></g></g><path fill="#ffffff" d="M 56.554688 26.519531 C 56.53125 26.421875 56.429688 26.363281 56.335938 26.386719 C 56.238281 26.414062 56.179688 26.511719 56.203125 26.609375 L 56.214844 26.648438 C 56.234375 26.730469 56.308594 26.789062 56.390625 26.789062 C 56.402344 26.789062 56.417969 26.785156 56.429688 26.78125 C 56.527344 26.761719 56.589844 26.664062 56.566406 26.566406 L 56.554688 26.519531 " fill-opacity="1" fill-rule="nonzero"/><g clip-path="url(#b3f47f59a3)"><path fill="#ffffff" d="M 63.40625 55.378906 C 63.40625 57.179688 61.941406 58.648438 60.140625 58.648438 L 21.28125 58.648438 C 19.476562 58.648438 18.011719 57.179688 18.011719 55.378906 L 18.011719 29.46875 C 18.011719 27.667969 19.476562 26.203125 21.28125 26.203125 L 32.976562 26.203125 L 35.144531 22.945312 C 35.203125 22.875 35.394531 22.773438 35.464844 22.765625 L 45.933594 22.765625 C 46.023438 22.773438 46.210938 22.875 46.261719 22.929688 L 48.441406 26.203125 L 60.140625 26.203125 C 61.941406 26.203125 63.40625 27.667969 63.40625 29.46875 Z M 60.140625 23.023438 L 50.144531 23.023438 L 48.90625 21.167969 C 48.300781 20.25 47.054688 19.585938 45.953125 19.585938 L 35.464844 19.585938 C 34.347656 19.585938 33.132812 20.234375 32.511719 21.164062 L 31.273438 23.023438 L 21.28125 23.023438 C 17.722656 23.023438 14.832031 25.914062 14.832031 29.46875 L 14.832031 55.378906 C 14.832031 58.933594 17.722656 61.824219 21.28125 61.824219 L 60.140625 61.824219 C 63.695312 61.824219 66.585938 58.933594 66.585938 55.378906 L 66.585938 29.46875 C 66.585938 25.914062 63.695312 23.023438 60.140625 23.023438 " fill-opacity="1" fill-rule="nonzero"/></g><path fill="#ffffff" d="M 40.710938 53.300781 C 34.710938 53.300781 29.832031 48.421875 29.832031 42.425781 C 29.832031 36.425781 34.710938 31.546875 40.710938 31.546875 C 46.707031 31.546875 51.589844 36.425781 51.589844 42.425781 C 51.589844 48.421875 46.707031 53.300781 40.710938 53.300781 Z M 40.710938 28.367188 C 32.957031 28.367188 26.652344 34.671875 26.652344 42.425781 C 26.652344 50.175781 32.957031 56.480469 40.710938 56.480469 C 48.460938 56.480469 54.769531 50.175781 54.769531 42.425781 C 54.769531 34.671875 48.460938 28.367188 40.710938 28.367188 " fill-opacity="1" fill-rule="nonzero"/><path fill="#ffffff" d="M 40.710938 34.796875 C 36.5 34.796875 33.082031 38.210938 33.082031 42.425781 C 33.082031 46.636719 36.5 50.050781 40.710938 50.050781 C 44.921875 50.050781 48.335938 46.636719 48.335938 42.425781 C 48.335938 38.210938 44.921875 34.796875 40.710938 34.796875 " fill-opacity="1" fill-rule="nonzero"/><path fill="#ffffff" d="M 23.957031 33.039062 C 23.035156 33.039062 22.28125 32.285156 22.28125 31.363281 C 22.28125 30.4375 23.035156 29.683594 23.957031 29.683594 C 24.882812 29.683594 25.636719 30.4375 25.636719 31.363281 C 25.636719 32.285156 24.882812 33.039062 23.957031 33.039062 Z M 23.957031 27.566406 C 21.867188 27.566406 20.164062 29.269531 20.164062 31.363281 C 20.164062 33.453125 21.867188 35.15625 23.957031 35.15625 C 26.050781 35.15625 27.753906 33.453125 27.753906 31.363281 C 27.753906 29.269531 26.050781 27.566406 23.957031 27.566406 " fill-opacity="1" fill-rule="nonzero"/></svg>