<svg xmlns="http://www.w3.org/2000/svg" xmlns:xlink="http://www.w3.org/1999/xlink" width="109" zoomAndPan="magnify" viewBox="0 0 81.75 81.749997" height="109" preserveAspectRatio="xMidYMid meet" version="1.0"><defs><clipPath id="031f9ac5f1"><path d="M 0 0 L 81.417969 0 L 81.417969 81.417969 L 0 81.417969 Z M 0 0 " clip-rule="nonzero"/></clipPath><clipPath id="9820b7138b"><path d="M 40.710938 0 C 18.226562 0 0 18.226562 0 40.710938 C 0 63.191406 18.226562 81.417969 40.710938 81.417969 C 63.191406 81.417969 81.417969 63.191406 81.417969 40.710938 C 81.417969 18.226562 63.191406 0 40.710938 0 Z M 40.710938 0 " clip-rule="nonzero"/></clipPath><clipPath id="86efeab681"><path d="M 18.089844 22.351562 L 65.71875 22.351562 L 65.71875 58.988281 L 18.089844 58.988281 Z M 18.089844 22.351562 " clip-rule="nonzero"/></clipPath></defs><g clip-path="url(#031f9ac5f1)"><g clip-path="url(#9820b7138b)"><path fill="#000000" d="M 0 0 L 81.417969 0 L 81.417969 81.417969 L 0 81.417969 Z M 0 0 " fill-opacity="1" fill-rule="nonzero"/></g></g><g clip-path="url(#86efeab681)"><path fill="#ffffff" d="M 49.363281 22.363281 L 41.855469 31.195312 L 34.351562 22.363281 L 18.089844 22.363281 L 33.726562 40.710938 L 18.089844 59.054688 L 34.351562 59.054688 L 41.855469 50.226562 L 49.363281 59.054688 L 65.621094 59.054688 L 49.984375 40.710938 L 65.621094 22.363281 Z M 49.363281 22.363281 " fill-opacity="1" fill-rule="nonzero"/></g></svg>