<svg xmlns="http://www.w3.org/2000/svg" xmlns:xlink="http://www.w3.org/1999/xlink" width="109" zoomAndPan="magnify" viewBox="0 0 81.75 81.749997" height="109" preserveAspectRatio="xMidYMid meet" version="1.0"><defs><clipPath id="d56014a8b5"><path d="M 0 0 L 81.417969 0 L 81.417969 81.417969 L 0 81.417969 Z M 0 0 " clip-rule="nonzero"/></clipPath><clipPath id="be51dd5bb7"><path d="M 40.710938 0 C 18.226562 0 0 18.226562 0 40.710938 C 0 63.191406 18.226562 81.417969 40.710938 81.417969 C 63.191406 81.417969 81.417969 63.191406 81.417969 40.710938 C 81.417969 18.226562 63.191406 0 40.710938 0 Z M 40.710938 0 " clip-rule="nonzero"/></clipPath><clipPath id="1ed2bc1eb7"><path d="M 15 14.160156 L 68 14.160156 L 68 68.746094 L 15 68.746094 Z M 15 14.160156 " clip-rule="nonzero"/></clipPath><clipPath id="ce230ddf4d"><path d="M 25 53 L 40 53 L 40 68.746094 L 25 68.746094 Z M 25 53 " clip-rule="nonzero"/></clipPath></defs><g clip-path="url(#d56014a8b5)"><g clip-path="url(#be51dd5bb7)"><path fill="#000000" d="M 0 0 L 81.417969 0 L 81.417969 81.417969 L 0 81.417969 Z M 0 0 " fill-opacity="1" fill-rule="nonzero"/></g></g><g clip-path="url(#1ed2bc1eb7)"><path fill="#ffffff" d="M 28.066406 68.582031 C 27.550781 68.582031 27.042969 68.449219 26.59375 68.199219 C 25.605469 67.640625 25.019531 66.589844 25.070312 65.453125 L 25.296875 60.183594 C 21.164062 56.863281 18.207031 52.414062 16.722656 47.292969 C 14.804688 40.65625 15.597656 33.660156 18.960938 27.59375 C 22.320312 21.523438 27.835938 17.117188 34.496094 15.191406 L 34.507812 15.1875 C 36.867188 14.507812 39.300781 14.160156 41.738281 14.160156 C 47.253906 14.160156 52.742188 15.972656 57.199219 19.261719 C 61.808594 22.660156 65.082031 27.355469 66.667969 32.84375 C 70.636719 46.5625 62.664062 60.960938 48.898438 64.945312 C 46.527344 65.628906 44.089844 65.976562 41.652344 65.976562 C 39.207031 65.976562 36.777344 65.628906 34.421875 64.941406 L 29.734375 68.078125 C 29.238281 68.410156 28.660156 68.582031 28.066406 68.582031 Z M 41.738281 16.113281 C 39.484375 16.113281 37.234375 16.433594 35.050781 17.066406 L 35.039062 17.070312 C 28.878906 18.851562 23.777344 22.925781 20.667969 28.539062 C 17.5625 34.152344 16.828125 40.617188 18.601562 46.75 C 20.015625 51.636719 22.882812 55.855469 26.894531 58.953125 C 27.144531 59.148438 27.285156 59.453125 27.273438 59.769531 L 27.023438 65.539062 C 27.003906 65.933594 27.207031 66.300781 27.554688 66.496094 C 27.710938 66.582031 27.886719 66.628906 28.066406 66.628906 C 28.273438 66.628906 28.472656 66.570312 28.648438 66.453125 L 33.71875 63.0625 C 33.964844 62.898438 34.269531 62.855469 34.550781 62.941406 C 36.859375 63.660156 39.246094 64.023438 41.652344 64.023438 C 43.90625 64.023438 46.160156 63.699219 48.355469 63.066406 C 61.085938 59.382812 68.460938 46.070312 64.792969 33.386719 C 61.851562 23.21875 52.371094 16.113281 41.738281 16.113281 Z M 49.917969 55.007812 C 48.132812 55.007812 45.757812 54.355469 42.214844 52.890625 C 37.65625 51.011719 33.132812 47.078125 29.484375 41.8125 C 29.421875 41.722656 29.378906 41.660156 29.355469 41.628906 C 29.351562 41.625 29.347656 41.617188 29.34375 41.613281 L 29.3125 41.574219 C 28.144531 39.988281 26.183594 36.832031 26.183594 33.527344 C 26.183594 29.652344 28.128906 27.683594 28.960938 26.84375 L 29.023438 26.777344 C 29.875 25.914062 30.820312 25.472656 31.839844 25.472656 C 34.128906 25.472656 35.96875 27.722656 36.921875 29.824219 C 37.832031 31.824219 38.394531 34.734375 36.984375 36.351562 C 36.816406 36.542969 36.65625 36.710938 36.5 36.875 C 36.300781 37.089844 36.109375 37.289062 35.921875 37.523438 C 35.914062 37.53125 35.910156 37.539062 35.902344 37.542969 L 35.886719 37.566406 C 35.808594 37.65625 35.695312 37.789062 35.660156 37.859375 C 35.664062 37.878906 35.679688 37.914062 35.710938 37.96875 C 36.21875 38.824219 37.625 41.023438 39.574219 42.75 C 42.015625 44.910156 43.984375 45.703125 44.933594 46.085938 C 45.019531 46.121094 45.097656 46.152344 45.167969 46.179688 C 45.277344 46.226562 45.398438 46.25 45.511719 46.25 C 45.59375 46.25 45.75 46.234375 45.84375 46.136719 C 46.285156 45.664062 46.847656 44.875 47.441406 44.042969 L 47.71875 43.660156 C 48.347656 42.769531 49.128906 42.582031 49.671875 42.582031 C 49.984375 42.582031 50.308594 42.644531 50.636719 42.765625 C 54.894531 44.242188 56.910156 45.433594 57.59375 46.882812 C 58.152344 48.070312 57.746094 49.160156 57.351562 50.210938 C 57.296875 50.363281 57.238281 50.515625 57.183594 50.675781 C 56.449219 52.738281 53.738281 54.347656 51.558594 54.820312 C 51.125 54.910156 50.609375 55.007812 49.917969 55.007812 Z M 30.914062 40.453125 C 30.953125 40.503906 31.007812 40.578125 31.089844 40.699219 C 34.527344 45.65625 38.742188 49.347656 42.960938 51.085938 C 46.210938 52.425781 48.421875 53.050781 49.917969 53.050781 C 50.421875 53.050781 50.804688 52.980469 51.148438 52.90625 C 52.800781 52.550781 54.882812 51.304688 55.339844 50.019531 C 55.398438 49.851562 55.460938 49.6875 55.519531 49.527344 C 55.855469 48.628906 56.023438 48.136719 55.824219 47.714844 C 55.417969 46.855469 53.453125 45.808594 49.988281 44.609375 C 49.980469 44.605469 49.972656 44.605469 49.964844 44.601562 C 49.851562 44.558594 49.75 44.535156 49.671875 44.535156 C 49.613281 44.535156 49.492188 44.535156 49.308594 44.792969 L 49.03125 45.179688 C 48.398438 46.066406 47.800781 46.902344 47.273438 47.472656 C 46.824219 47.945312 46.199219 48.207031 45.511719 48.207031 C 45.144531 48.207031 44.765625 48.128906 44.417969 47.984375 C 44.355469 47.960938 44.285156 47.929688 44.203125 47.898438 C 43.234375 47.507812 40.972656 46.597656 38.277344 44.210938 C 36.199219 42.371094 34.722656 40.128906 34.027344 38.960938 C 33.253906 37.632812 34.058594 36.695312 34.398438 36.296875 L 34.410156 36.285156 C 34.644531 35.996094 34.867188 35.761719 35.082031 35.535156 C 35.230469 35.375 35.371094 35.230469 35.511719 35.066406 C 36.128906 34.359375 35.972656 32.453125 35.144531 30.632812 C 34.273438 28.71875 32.945312 27.429688 31.839844 27.429688 C 31.363281 27.429688 30.886719 27.671875 30.417969 28.148438 L 30.351562 28.21875 C 29.632812 28.941406 28.136719 30.453125 28.136719 33.527344 C 28.136719 35.535156 29.140625 38.042969 30.886719 40.414062 Z M 30.914062 40.453125 " fill-opacity="1" fill-rule="nonzero"/></g><g clip-path="url(#ce230ddf4d)"><path fill="#ffffff" d="M 28.066406 68.585938 C 27.550781 68.585938 27.042969 68.449219 26.59375 68.199219 C 25.652344 67.667969 25.066406 66.667969 25.066406 65.585938 C 25.066406 65.542969 25.066406 65.496094 25.070312 65.453125 L 25.546875 54.457031 C 25.570312 53.917969 26.023438 53.5 26.566406 53.523438 C 27.105469 53.546875 27.523438 54.003906 27.5 54.542969 L 27.023438 65.539062 C 27.019531 65.554688 27.019531 65.570312 27.019531 65.585938 C 27.019531 65.960938 27.226562 66.308594 27.554688 66.496094 C 27.710938 66.582031 27.886719 66.628906 28.066406 66.628906 C 28.273438 66.628906 28.472656 66.570312 28.644531 66.453125 L 38.195312 60.070312 C 38.644531 59.769531 39.25 59.890625 39.550781 60.339844 C 39.847656 60.785156 39.730469 61.394531 39.28125 61.695312 L 29.734375 68.078125 C 29.238281 68.410156 28.660156 68.585938 28.066406 68.585938 Z M 28.066406 68.585938 " fill-opacity="1" fill-rule="nonzero"/></g></svg>