<svg xmlns="http://www.w3.org/2000/svg" xmlns:xlink="http://www.w3.org/1999/xlink" zoomAndPan="magnify" preserveAspectRatio="xMidYMid meet" version="1.0" viewBox="441.07 88 557.93 558.5"><defs><clipPath id="a2f392c8b6"><path d="M 441.074219 88 L 999 88 L 999 646.5 L 441.074219 646.5 Z M 441.074219 88 " clip-rule="nonzero"/></clipPath></defs><g clip-path="url(#a2f392c8b6)"><path fill="#000000" d="M 567.433594 519.808594 C 633.234375 519.808594 687.320312 569.949219 693.527344 634.09375 C 693.84375 637.367188 692.867188 640.304688 690.652344 642.742188 C 688.441406 645.179688 685.605469 646.433594 682.316406 646.433594 L 452.550781 646.433594 C 449.257812 646.433594 446.425781 645.179688 444.214844 642.742188 C 442 640.304688 441.023438 637.367188 441.339844 634.09375 C 447.546875 569.949219 501.632812 519.808594 567.433594 519.808594 Z M 567.433594 380.507812 C 602.808594 380.507812 631.484375 409.171875 631.484375 444.53125 C 631.484375 479.886719 602.808594 508.550781 567.433594 508.550781 C 532.058594 508.550781 503.382812 479.886719 503.382812 444.53125 C 503.382812 409.171875 532.058594 380.507812 567.433594 380.507812 Z M 872.605469 519.808594 C 938.40625 519.808594 992.492188 569.949219 998.699219 634.09375 C 999.015625 637.367188 998.039062 640.304688 995.828125 642.742188 C 993.613281 645.179688 990.78125 646.433594 987.488281 646.433594 L 757.722656 646.433594 C 754.429688 646.433594 751.597656 645.179688 749.386719 642.742188 C 747.171875 640.304688 746.195312 637.367188 746.511719 634.09375 C 752.71875 569.949219 806.804688 519.808594 872.605469 519.808594 Z M 872.605469 380.507812 C 907.980469 380.507812 936.65625 409.171875 936.65625 444.53125 C 936.65625 479.886719 907.980469 508.550781 872.605469 508.550781 C 837.230469 508.550781 808.554688 479.886719 808.554688 444.53125 C 808.554688 409.171875 837.234375 380.507812 872.605469 380.507812 Z M 723.03125 338.59375 C 738.101562 341.621094 754.011719 341.765625 770.023438 338.527344 C 789.960938 334.496094 807.714844 325.695312 822.34375 313.558594 L 859.035156 326.417969 C 861.242188 327.191406 863.570312 326.585938 865.117188 324.832031 C 866.664062 323.078125 866.980469 320.695312 865.9375 318.601562 L 848.359375 283.292969 C 863.179688 258.710938 869.1875 228.726562 863.042969 198.378906 C 854.035156 153.882812 821.265625 120.265625 780.617188 108.039062 C 810.976562 136.800781 827.808594 179.074219 822.347656 223.667969 C 815.433594 280.109375 774.75 324.332031 723.03125 338.59375 Z M 701.382812 89.050781 C 766.609375 97.03125 813.007812 156.351562 805.023438 221.546875 C 797.035156 286.742188 737.6875 333.117188 672.460938 325.136719 C 652.269531 322.664062 633.886719 315.269531 618.359375 304.308594 L 582.777344 319.980469 C 580.640625 320.925781 578.269531 320.5 576.589844 318.871094 C 574.910156 317.242188 574.410156 314.890625 575.289062 312.722656 L 590.066406 276.15625 C 573.382812 252.796875 565.058594 223.371094 568.820312 192.640625 C 576.808594 127.445312 636.160156 81.066406 701.382812 89.050781 Z M 686.796875 195.835938 C 680.574219 195.835938 675.535156 200.878906 675.535156 207.09375 C 675.535156 213.308594 680.574219 218.347656 686.796875 218.347656 C 693.015625 218.347656 698.058594 213.308594 698.058594 207.09375 C 698.058594 200.875 693.015625 195.835938 686.796875 195.835938 Z M 635.511719 195.835938 C 629.292969 195.835938 624.25 200.878906 624.25 207.09375 C 624.25 213.308594 629.292969 218.347656 635.511719 218.347656 C 641.730469 218.347656 646.773438 213.308594 646.773438 207.09375 C 646.769531 200.875 641.730469 195.835938 635.511719 195.835938 Z M 738.335938 195.835938 C 744.554688 195.835938 749.59375 200.878906 749.59375 207.09375 C 749.59375 213.308594 744.554688 218.347656 738.335938 218.347656 C 732.113281 218.347656 727.074219 213.308594 727.074219 207.09375 C 727.074219 200.875 732.113281 195.835938 738.335938 195.835938 Z M 738.335938 195.835938 " fill-opacity="1" fill-rule="evenodd" data-darkreader-inline-fill="" style="--darkreader-inline-fill: #000000;"/></g></svg>